<?xml version="1.0" encoding="UTF-8" standalone="no"?>
<svg
   xmlns:dc="http://purl.org/dc/elements/1.1/"
   xmlns:cc="http://creativecommons.org/ns#"
   xmlns:rdf="http://www.w3.org/1999/02/22-rdf-syntax-ns#"
   xmlns:svg="http://www.w3.org/2000/svg"
   xmlns="http://www.w3.org/2000/svg"
   xmlns:sodipodi="http://sodipodi.sourceforge.net/DTD/sodipodi-0.dtd"
   xmlns:inkscape="http://www.inkscape.org/namespaces/inkscape"
   version="1.1"
   id="svg6"
   sodipodi:docname="botones.svg"
   width="128"
   height="128"
   inkscape:version="0.92.1 r15371">
  <metadata
     id="metadata10">
    <rdf:RDF>
      <cc:Work
         rdf:about="">
        <dc:format>image/svg+xml</dc:format>
        <dc:type
           rdf:resource="http://purl.org/dc/dcmitype/StillImage" />
        <dc:title></dc:title>
      </cc:Work>
    </rdf:RDF>
  </metadata>
  <sodipodi:namedview
     pagecolor="#ffffff"
     bordercolor="#666666"
     borderopacity="1"
     objecttolerance="10"
     gridtolerance="10"
     guidetolerance="10"
     inkscape:pageopacity="0"
     inkscape:pageshadow="2"
     inkscape:window-width="1376"
     inkscape:window-height="872"
     id="namedview8"
     showgrid="false"
     inkscape:zoom="2.36"
     inkscape:cx="50"
     inkscape:cy="50"
     inkscape:window-x="0"
     inkscape:window-y="0"
     inkscape:window-maximized="0"
     inkscape:current-layer="layer1" />
  <defs
     id="defs2" />
  <g
     inkscape:label="Capa 1"
     inkscape:groupmode="layer"
     id="layer1"
     transform="translate(0,-235.13332)">
    <g
       id="g4489"
       transform="matrix(3.8197959,0,0,3.8197959,-1.7359577,-759.45312)">
      <path
         inkscape:connector-curvature="0"
         id="path3736-7"
         d="m 4.6979042,286.758 c -1.0616689,0.0209 -1.5466425,0.6764 -1.6102375,1.58802 -0.05584,1.14356 0.5391484,1.40187 0.5493205,1.85208 0.01034,0.45776 -0.1860351,1.74667 -0.1860351,1.74667 H 17.209285 30.967618 c 0,0 -0.196376,-1.28891 -0.186034,-1.74667 0.01016,-0.45021 0.605161,-0.70852 0.54932,-1.85208 -0.06359,-0.91162 -0.548571,-1.56713 -1.610238,-1.58802 -2.953573,0.008 -12.511381,0.0227 -12.511381,0.0227 0,0 -9.5578082,-0.0151 -12.5113808,-0.0227 z m 0.1343589,0.78859 a 0.86060578,0.86060578 0 0 1 0.8609293,0.86041 0.86060578,0.86060578 0 0 1 -0.8609293,0.86093 0.86060578,0.86060578 0 0 1 -0.8604126,-0.86093 0.86060578,0.86060578 0 0 1 0.8604126,-0.86041 z m 2.2484413,0 a 0.86060578,0.86060578 0 0 1 0.8604117,0.86041 0.86060578,0.86060578 0 0 1 -0.8604117,0.86093 0.86060578,0.86060578 0 0 1 -0.8604123,-0.86093 0.86060578,0.86060578 0 0 1 0.8604123,-0.86041 z m 2.2484423,0 a 0.86060578,0.86060578 0 0 1 0.8604123,0.86041 0.86060578,0.86060578 0 0 1 -0.8604123,0.86093 0.86060578,0.86060578 0 0 1 -0.8609303,-0.86093 0.86060578,0.86060578 0 0 1 0.8609303,-0.86041 z m 2.2484393,0 a 0.86060578,0.86060578 0 0 1 0.860415,0.86041 0.86060578,0.86060578 0 0 1 -0.860415,0.86093 0.86060578,0.86060578 0 0 1 -0.860927,-0.86093 0.86060578,0.86060578 0 0 1 0.860927,-0.86041 z m 2.247927,0 a 0.86060578,0.86060578 0 0 1 0.860928,0.86041 0.86060578,0.86060578 0 0 1 -0.860928,0.86093 0.86060578,0.86060578 0 0 1 -0.860415,-0.86093 0.86060578,0.86060578 0 0 1 0.860415,-0.86041 z m 2.24844,0 a 0.86060578,0.86060578 0 0 1 0.860414,0.86041 0.86060578,0.86060578 0 0 1 -0.860414,0.86093 0.86060578,0.86060578 0 0 1 -0.860412,-0.86093 0.86060578,0.86060578 0 0 1 0.860412,-0.86041 z m 2.248442,0 a 0.86060578,0.86060578 0 0 1 0.860412,0.86041 0.86060578,0.86060578 0 0 1 -0.860412,0.86093 0.86060578,0.86060578 0 0 1 -0.860412,-0.86093 0.86060578,0.86060578 0 0 1 0.860412,-0.86041 z m 2.248442,0 a 0.86060578,0.86060578 0 0 1 0.860412,0.86041 0.86060578,0.86060578 0 0 1 -0.860412,0.86093 0.86060578,0.86060578 0 0 1 -0.86093,-0.86093 0.86060578,0.86060578 0 0 1 0.86093,-0.86041 z m 2.247924,0 a 0.86060578,0.86060578 0 0 1 0.86093,0.86041 0.86060578,0.86060578 0 0 1 -0.86093,0.86093 0.86060578,0.86060578 0 0 1 -0.860412,-0.86093 0.86060578,0.86060578 0 0 1 0.860412,-0.86041 z m 2.248443,0 a 0.86060578,0.86060578 0 0 1 0.86093,0.86041 0.86060578,0.86060578 0 0 1 -0.86093,0.86093 0.86060578,0.86060578 0 0 1 -0.860412,-0.86093 0.86060578,0.86060578 0 0 1 0.860412,-0.86041 z m 2.248442,0 a 0.86060578,0.86060578 0 0 1 0.860412,0.86041 0.86060578,0.86060578 0 0 1 -0.860412,0.86093 0.86060578,0.86060578 0 0 1 -0.860415,-0.86093 0.86060578,0.86060578 0 0 1 0.860415,-0.86041 z m 2.24844,0 a 0.86060578,0.86060578 0 0 1 0.860414,0.86041 0.86060578,0.86060578 0 0 1 -0.860414,0.86093 0.86060578,0.86060578 0 0 1 -0.860928,-0.86093 0.86060578,0.86060578 0 0 1 0.860928,-0.86041 z m -23.6130284,1.68878 a 0.86060578,0.86060578 0 0 1 0.8609296,0.86093 0.86060578,0.86060578 0 0 1 -0.8609296,0.86041 0.86060578,0.86060578 0 0 1 -0.8604125,-0.86041 0.86060578,0.86060578 0 0 1 0.8604125,-0.86093 z m 2.2494746,0 a 0.86060578,0.86060578 0 0 1 0.8604144,0.86093 0.86060578,0.86060578 0 0 1 -0.8604144,0.86041 0.86060578,0.86060578 0 0 1 -0.8604118,-0.86041 0.86060578,0.86060578 0 0 1 0.8604118,-0.86093 z m 2.2494768,0 a 0.86060578,0.86060578 0 0 1 0.860412,0.86093 0.86060578,0.86060578 0 0 1 -0.860412,0.86041 0.86060578,0.86060578 0 0 1 -0.8604144,-0.86041 0.86060578,0.86060578 0 0 1 0.8604144,-0.86093 z m 2.249474,0 a 0.86060578,0.86060578 0 0 1 0.860412,0.86093 0.86060578,0.86060578 0 0 1 -0.860412,0.86041 0.86060578,0.86060578 0 0 1 -0.86093,-0.86041 0.86060578,0.86060578 0 0 1 0.86093,-0.86093 z m 2.249475,0 a 0.86060578,0.86060578 0 0 1 0.860411,0.86093 0.86060578,0.86060578 0 0 1 -0.860411,0.86041 0.86060578,0.86060578 0 0 1 -0.860928,-0.86041 0.86060578,0.86060578 0 0 1 0.860928,-0.86093 z m 2.248958,0 a 0.86060578,0.86060578 0 0 1 0.86093,0.86093 0.86060578,0.86060578 0 0 1 -0.86093,0.86041 0.86060578,0.86060578 0 0 1 -0.860412,-0.86041 0.86060578,0.86060578 0 0 1 0.860412,-0.86093 z m 2.249474,0 a 0.86060578,0.86060578 0 0 1 0.86093,0.86093 0.86060578,0.86060578 0 0 1 -0.86093,0.86041 0.86060578,0.86060578 0 0 1 -0.860412,-0.86041 0.86060578,0.86060578 0 0 1 0.860412,-0.86093 z m 2.249477,0 a 0.86060578,0.86060578 0 0 1 0.860928,0.86093 0.86060578,0.86060578 0 0 1 -0.860928,0.86041 0.86060578,0.86060578 0 0 1 -0.860414,-0.86041 0.86060578,0.86060578 0 0 1 0.860414,-0.86093 z m 2.249474,0 a 0.86060578,0.86060578 0 0 1 0.860412,0.86093 0.86060578,0.86060578 0 0 1 -0.860412,0.86041 0.86060578,0.86060578 0 0 1 -0.860412,-0.86041 0.86060578,0.86060578 0 0 1 0.860412,-0.86093 z m 2.249474,0 a 0.86060578,0.86060578 0 0 1 0.860415,0.86093 0.86060578,0.86060578 0 0 1 -0.860415,0.86041 0.86060578,0.86060578 0 0 1 -0.860411,-0.86041 0.86060578,0.86060578 0 0 1 0.860411,-0.86093 z m 2.249477,0 a 0.86060578,0.86060578 0 0 1 0.860412,0.86093 0.86060578,0.86060578 0 0 1 -0.860412,0.86041 0.86060578,0.86060578 0 0 1 -0.86093,-0.86041 0.86060578,0.86060578 0 0 1 0.86093,-0.86093 z"
         style="fill:#000000;stroke:none;stroke-width:0.26458332px;stroke-linecap:butt;stroke-linejoin:miter;stroke-opacity:1" />
      <path
         id="path4730"
         transform="matrix(0.26458333,0,0,0.26458333,0,263.13332)"
         d="M 65,45.482422 56.542969,61.123047 H 65 73.457031 Z"
         style="fill:#000000;stroke:#000000;stroke-width:0.99999994px;stroke-linecap:butt;stroke-linejoin:miter;stroke-opacity:1"
         inkscape:connector-curvature="0" />
    </g>
  </g>
</svg>
